<?xml version="1.0" encoding="UTF-8" standalone="no"?>
<!-- Generator: Adobe Illustrator 18.0.0, SVG Export Plug-In . SVG Version: 6.00 Build 0)  -->

<svg
   xmlns:dc="http://purl.org/dc/elements/1.1/"
   xmlns:cc="http://creativecommons.org/ns#"
   xmlns:rdf="http://www.w3.org/1999/02/22-rdf-syntax-ns#"
   xmlns:svg="http://www.w3.org/2000/svg"
   xmlns="http://www.w3.org/2000/svg"
   xmlns:sodipodi="http://sodipodi.sourceforge.net/DTD/sodipodi-0.dtd"
   xmlns:inkscape="http://www.inkscape.org/namespaces/inkscape"
   version="1.1"
   id="Layer_1"
   x="0px"
   y="0px"
   viewBox="0 0 1024 768"
   style="enable-background:new 0 0 1024 768;"
   xml:space="preserve"
   sodipodi:docname="Tank.svg"
   inkscape:version="0.92.1 r15371"><metadata
     id="metadata99"><rdf:RDF><cc:Work
         rdf:about=""><dc:format>image/svg+xml</dc:format><dc:type
           rdf:resource="http://purl.org/dc/dcmitype/StillImage" /></cc:Work></rdf:RDF></metadata><defs
     id="defs97" /><sodipodi:namedview
     pagecolor="#ffffff"
     bordercolor="#666666"
     borderopacity="1"
     objecttolerance="10"
     gridtolerance="10"
     guidetolerance="10"
     inkscape:pageopacity="0"
     inkscape:pageshadow="2"
     inkscape:window-width="1920"
     inkscape:window-height="1017"
     id="namedview95"
     showgrid="false"
     inkscape:zoom="0.27734375"
     inkscape:cx="512"
     inkscape:cy="384"
     inkscape:window-x="-8"
     inkscape:window-y="-8"
     inkscape:window-maximized="1"
     inkscape:current-layer="Layer_1" /><g
     id="g92"
     transform="matrix(-1,0,0,1,1005.36,0)"><rect
       x="328.69101"
       y="137.565"
       style="fill:#6fd8fe;stroke:#636363;stroke-miterlimit:10"
       width="613.68298"
       height="455.12399"
       id="rect2" /><polyline
       style="fill:#5ac7fe;stroke:#636363;stroke-miterlimit:10"
       points="830.732,272.556 752.076,237.805 521.5,272.732    521.5,459.083 752.076,492.381 830.796,459.435  "
       id="polyline4" /><polygon
       style="fill:#87ecff;stroke:#636363;stroke-miterlimit:10"
       points="791.791,444.451 729.953,472.164 548.5,444.155 548.5,287.401 730.613,258.021 791.101,287.253 728.5,257.906 728.5,471.961 "
       id="polygon6" /><polygon
       style="fill:#5ac7fe;stroke:#636363;stroke-miterlimit:10"
       points="942.373,513.5 412.846,513.5 359.5,529.292 359.5,547.5 942.814,547.5 "
       id="polygon8" /><polygon
       style="fill:#5ac7fe;stroke:#636363;stroke-miterlimit:10"
       points="942.373,222.5 412.846,222.5 359.5,202.953 359.5,186.5 942.814,186.5 "
       id="polygon10" /><polygon
       style="fill:#5ac7fe;stroke:#636363;stroke-miterlimit:10"
       points="992.496,567.731 942.373,592.689 942.373,137.565 992.496,162.524 "
       id="polygon12" /><polygon
       style="fill:#56a6fe;stroke:#636363;stroke-miterlimit:10"
       points="792.975,286.046 831.03,271.775 831.03,458.479 792.975,444.209 "
       id="polygon14" /><rect
       x="496.866"
       y="289.63599"
       style="fill:#56a6fe;stroke:#636363;stroke-miterlimit:10"
       width="25.568001"
       height="151.028"
       id="rect16" /><rect
       x="469.51501"
       y="247.97099"
       style="fill:#5ac7fe;stroke:#636363;stroke-miterlimit:10"
       width="27.351"
       height="234.35899"
       id="rect18" /><rect
       x="90.162003"
       y="355.51599"
       style="fill:#5ac7fe;stroke:#636363;stroke-miterlimit:10"
       width="263.70401"
       height="19.268999"
       id="rect20" /><polygon
       style="fill:#56a6fe;stroke:#636363;stroke-miterlimit:10"
       points="69.946,345.529 92.54,355.042 92.54,375.258 69.946,384.772 "
       id="polygon22" /><rect
       x="56.863998"
       y="335.444"
       style="fill:#5ac7fe;stroke:#636363;stroke-miterlimit:10"
       width="13.081"
       height="59.412998"
       id="rect24" /><polygon
       style="fill:#5ac7fe;stroke:#636363;stroke-miterlimit:10"
       points="56.864,339.853 12.864,352.119 12.864,378.182 56.864,390.447 "
       id="polygon26" /><rect
       x="973.73297"
       y="247.948"
       style="fill:#56a6fe;stroke:#636363;stroke-miterlimit:10"
       width="18.763"
       height="234.35899"
       id="rect28" /><polygon
       style="fill:#5fcfed;stroke:#636363;stroke-miterlimit:10"
       points="356.5,529.292 356.5,203.203 408.5,221.041 408.5,512.393 "
       id="polygon30" /><path
       style="fill:#5ac7fe;stroke:#636363;stroke-miterlimit:10"
       d="m 413.928,185.96 h -1.801 c -2.618,0 -4.76,-2.142 -4.76,-4.76 v -38.254 c 0,-2.618 2.142,-4.76 4.76,-4.76 h 1.801 c 2.618,0 4.76,2.142 4.76,4.76 V 181.2 c 0,2.618 -2.142,4.76 -4.76,4.76 z"
       id="path32"
       inkscape:connector-curvature="0" /><path
       style="fill:#5ac7fe;stroke:#636363;stroke-miterlimit:10"
       d="m 850.779,185.96 h -1.801 c -2.618,0 -4.76,-2.142 -4.76,-4.76 v -38.254 c 0,-2.618 2.142,-4.76 4.76,-4.76 h 1.801 c 2.618,0 4.76,2.142 4.76,4.76 V 181.2 c -10e-4,2.618 -2.142,4.76 -4.76,4.76 z"
       id="path34"
       inkscape:connector-curvature="0" /><path
       style="fill:#5ac7fe;stroke:#636363;stroke-miterlimit:10"
       d="m 763.409,185.96 h -1.801 c -2.618,0 -4.76,-2.142 -4.76,-4.76 v -38.254 c 0,-2.618 2.142,-4.76 4.76,-4.76 h 1.801 c 2.618,0 4.76,2.142 4.76,4.76 V 181.2 c -10e-4,2.618 -2.142,4.76 -4.76,4.76 z"
       id="path36"
       inkscape:connector-curvature="0" /><path
       style="fill:#5ac7fe;stroke:#636363;stroke-miterlimit:10"
       d="m 676.039,185.96 h -1.801 c -2.618,0 -4.76,-2.142 -4.76,-4.76 v -38.254 c 0,-2.618 2.142,-4.76 4.76,-4.76 h 1.801 c 2.618,0 4.76,2.142 4.76,4.76 V 181.2 c -10e-4,2.618 -2.143,4.76 -4.76,4.76 z"
       id="path38"
       inkscape:connector-curvature="0" /><path
       style="fill:#5ac7fe;stroke:#636363;stroke-miterlimit:10"
       d="m 588.669,185.96 h -1.801 c -2.618,0 -4.76,-2.142 -4.76,-4.76 v -38.254 c 0,-2.618 2.142,-4.76 4.76,-4.76 h 1.801 c 2.618,0 4.76,2.142 4.76,4.76 V 181.2 c -10e-4,2.618 -2.143,4.76 -4.76,4.76 z"
       id="path40"
       inkscape:connector-curvature="0" /><path
       style="fill:#5ac7fe;stroke:#636363;stroke-miterlimit:10"
       d="m 501.299,185.96 h -1.801 c -2.618,0 -4.76,-2.142 -4.76,-4.76 v -38.254 c 0,-2.618 2.142,-4.76 4.76,-4.76 h 1.801 c 2.618,0 4.76,2.142 4.76,4.76 V 181.2 c -0.001,2.618 -2.143,4.76 -4.76,4.76 z"
       id="path42"
       inkscape:connector-curvature="0" /><path
       style="fill:#5ac7fe;stroke:#636363;stroke-miterlimit:10"
       d="m 414.185,591.927 h -1.801 c -2.618,0 -4.76,-2.142 -4.76,-4.76 v -36.122 c 0,-2.618 2.142,-4.76 4.76,-4.76 h 1.801 c 2.618,0 4.76,2.142 4.76,4.76 v 36.122 c -10e-4,2.618 -2.142,4.76 -4.76,4.76 z"
       id="path44"
       inkscape:connector-curvature="0" /><path
       style="fill:#5ac7fe;stroke:#636363;stroke-miterlimit:10"
       d="m 851.035,591.927 h -1.801 c -2.618,0 -4.76,-2.142 -4.76,-4.76 v -36.122 c 0,-2.618 2.142,-4.76 4.76,-4.76 h 1.801 c 2.618,0 4.76,2.142 4.76,4.76 v 36.122 c 0,2.618 -2.142,4.76 -4.76,4.76 z"
       id="path46"
       inkscape:connector-curvature="0" /><path
       style="fill:#5ac7fe;stroke:#636363;stroke-miterlimit:10"
       d="m 763.665,591.927 h -1.801 c -2.618,0 -4.76,-2.142 -4.76,-4.76 v -36.122 c 0,-2.618 2.142,-4.76 4.76,-4.76 h 1.801 c 2.618,0 4.76,2.142 4.76,4.76 v 36.122 c 0,2.618 -2.142,4.76 -4.76,4.76 z"
       id="path48"
       inkscape:connector-curvature="0" /><path
       style="fill:#5ac7fe;stroke:#636363;stroke-miterlimit:10"
       d="m 676.295,591.927 h -1.801 c -2.618,0 -4.76,-2.142 -4.76,-4.76 v -36.122 c 0,-2.618 2.142,-4.76 4.76,-4.76 h 1.801 c 2.618,0 4.76,2.142 4.76,4.76 v 36.122 c 0,2.618 -2.142,4.76 -4.76,4.76 z"
       id="path50"
       inkscape:connector-curvature="0" /><path
       style="fill:#5ac7fe;stroke:#636363;stroke-miterlimit:10"
       d="m 588.925,591.927 h -1.801 c -2.618,0 -4.76,-2.142 -4.76,-4.76 v -36.122 c 0,-2.618 2.142,-4.76 4.76,-4.76 h 1.801 c 2.618,0 4.76,2.142 4.76,4.76 v 36.122 c 0,2.618 -2.142,4.76 -4.76,4.76 z"
       id="path52"
       inkscape:connector-curvature="0" /><path
       style="fill:#5ac7fe;stroke:#636363;stroke-miterlimit:10"
       d="m 501.555,591.927 h -1.801 c -2.618,0 -4.76,-2.142 -4.76,-4.76 v -36.122 c 0,-2.618 2.142,-4.76 4.76,-4.76 h 1.801 c 2.618,0 4.76,2.142 4.76,4.76 v 36.122 c 0,2.618 -2.142,4.76 -4.76,4.76 z"
       id="path54"
       inkscape:connector-curvature="0" /><polygon
       style="fill:#5ac7fe;stroke:#636363;stroke-miterlimit:10"
       points="308.671,230.5 346.5,230.5 346.5,137.797 320.534,137.841 295.463,177.735 "
       id="polygon56" /><polygon
       style="fill:#5ac7fe;stroke:#636363;stroke-miterlimit:10"
       points="308.82,502.5 346.5,502.5 346.5,592.664 320.527,592.62 295.314,553.996 "
       id="polygon58" /><path
       style="fill:#5ac7fe;stroke:#636363;stroke-miterlimit:10"
       d="m 338.272,244.151 h -21.435 c -2.935,0 -5.337,-2.401 -5.337,-5.337 v -2.019 c 0,-2.935 2.401,-5.337 5.337,-5.337 h 21.435 c 2.935,0 5.337,2.401 5.337,5.337 v 2.019 c 0,2.936 -2.402,5.337 -5.337,5.337 z"
       id="path60"
       inkscape:connector-curvature="0" /><path
       style="fill:#5ac7fe;stroke:#636363;stroke-miterlimit:10"
       d="m 584.287,313.495 h -17.868 c -2.935,0 -5.337,-2.401 -5.337,-5.337 v -6.779 c 0,-2.935 2.401,-5.337 5.337,-5.337 h 17.868 c 2.935,0 5.337,2.401 5.337,5.337 v 6.779 c -10e-4,2.936 -2.402,5.337 -5.337,5.337 z"
       id="path62"
       inkscape:connector-curvature="0" /><path
       style="fill:#5ac7fe;stroke:#636363;stroke-miterlimit:10"
       d="m 584.287,434.587 h -17.868 c -2.935,0 -5.337,-2.401 -5.337,-5.337 v -6.779 c 0,-2.935 2.401,-5.337 5.337,-5.337 h 17.868 c 2.935,0 5.337,2.401 5.337,5.337 v 6.779 c -10e-4,2.936 -2.402,5.337 -5.337,5.337 z"
       id="path64"
       inkscape:connector-curvature="0" /><polygon
       style="fill:#5ac7fe;stroke:#636363;stroke-miterlimit:10"
       points="578.136,330.66 570.192,347.554 570.192,383.454 578.136,400.348 "
       id="polygon66" /><polygon
       style="fill:#5ac7fe;stroke:#636363;stroke-miterlimit:10"
       points="595.712,322.449 587.768,343.685 587.768,388.81 595.712,410.046 "
       id="polygon68" /><path
       style="fill:#5ac7fe;stroke:#636363;stroke-miterlimit:10"
       d="m 338.272,499.916 h -21.435 c -2.935,0 -5.337,-2.401 -5.337,-5.337 v -2.019 c 0,-2.935 2.401,-5.337 5.337,-5.337 h 21.435 c 2.935,0 5.337,2.401 5.337,5.337 v 2.019 c 0,2.936 -2.402,5.337 -5.337,5.337 z"
       id="path70"
       inkscape:connector-curvature="0" /><polygon
       style="fill:#56a6fe;stroke:#636363;stroke-miterlimit:10"
       points="358.5,549.5 345.5,549.5 345.5,184.77 358.5,185.96 "
       id="polygon72" /><path
       style="fill:#5ac7fe;stroke:#636363;stroke-miterlimit:10"
       d="m 433.731,384.772 h -73.514 c -6.6,0 -12,-5.4 -12,-12 v -15.243 c 0,-6.6 5.4,-12 12,-12 h 73.514 c 6.6,0 12,5.4 12,12 v 15.243 c 0,6.6 -5.4,12 -12,12 z"
       id="path74"
       inkscape:connector-curvature="0" /><path
       style="fill:#5ac7fe;stroke:#636363;stroke-miterlimit:10"
       d="m 465.461,394.88 h -24 c -5.5,0 -10,-4.5 -10,-10 v -39.46 c 0,-5.5 4.5,-10 10,-10 h 24 c 5.5,0 10,4.5 10,10 v 39.46 c 0,5.5 -4.5,10 -10,10 z"
       id="path76"
       inkscape:connector-curvature="0" /><circle
       style="fill:#5ac7fe;stroke:#636363;stroke-miterlimit:10"
       cx="669.89398"
       cy="404.52899"
       r="49.352001"
       id="circle78" /><circle
       style="fill:#87ecff;stroke:#636363;stroke-miterlimit:10"
       cx="669.776"
       cy="404.88901"
       r="39.720001"
       id="circle80" /><circle
       style="fill:#5ac7fe;stroke:#636363;stroke-miterlimit:10"
       cx="874.02899"
       cy="271.745"
       r="29.919001"
       id="circle82" /><circle
       style="fill:#87ecff;stroke:#636363;stroke-miterlimit:10"
       cx="873.95801"
       cy="271.96399"
       r="24.08"
       id="circle84" /><circle
       style="fill:#5ac7fe;stroke:#636363;stroke-miterlimit:10"
       cx="874.02899"
       cy="458.44901"
       r="29.919001"
       id="circle86" /><circle
       style="fill:#87ecff;stroke:#636363;stroke-miterlimit:10"
       cx="873.95801"
       cy="458.66699"
       r="24.08"
       id="circle88" /><path
       style="fill:#5ac7fe;stroke:#636363;stroke-miterlimit:10"
       d="m 694.719,439.771 -1.419,0.941 c -2.063,1.368 -4.87,0.799 -6.237,-1.264 l -18.116,-27.325 c -1.368,-2.063 -0.799,-4.87 1.264,-6.237 l 1.419,-0.941 c 2.063,-1.368 4.87,-0.799 6.237,1.264 l 18.116,27.325 c 1.368,2.062 0.799,4.869 -1.264,6.237 z"
       id="path90"
       inkscape:connector-curvature="0" /></g></svg>